<?xml version="1.0" encoding="UTF-8" standalone="no"?>
<!-- Created with Inkscape (http://www.inkscape.org/) -->

<svg
   xmlns:dc="http://purl.org/dc/elements/1.1/"
   xmlns:cc="http://creativecommons.org/ns#"
   xmlns:rdf="http://www.w3.org/1999/02/22-rdf-syntax-ns#"
   xmlns:svg="http://www.w3.org/2000/svg"
   xmlns="http://www.w3.org/2000/svg"
   xmlns:sodipodi="http://sodipodi.sourceforge.net/DTD/sodipodi-0.dtd"
   xmlns:inkscape="http://www.inkscape.org/namespaces/inkscape"
   id="svg3039"
   version="1.1"
   inkscape:version="0.48.4 r9939"
   width="512"
   height="512"
   sodipodi:docname="humburger-512.png">
  <metadata
     id="metadata3045">
    <rdf:RDF>
      <cc:Work
         rdf:about="">
        <dc:format>image/svg+xml</dc:format>
        <dc:type
           rdf:resource="http://purl.org/dc/dcmitype/StillImage" />
        <dc:title></dc:title>
      </cc:Work>
    </rdf:RDF>
  </metadata>
  <defs
     id="defs3043" />
  <sodipodi:namedview
     pagecolor="#ffffff"
     bordercolor="#666666"
     borderopacity="1"
     objecttolerance="10"
     gridtolerance="10"
     guidetolerance="10"
     inkscape:pageopacity="0"
     inkscape:pageshadow="2"
     inkscape:window-width="1680"
     inkscape:window-height="991"
     id="namedview3041"
     showgrid="false"
     inkscape:zoom="1.4648438"
     inkscape:cx="169.30133"
     inkscape:cy="256"
     inkscape:window-x="0"
     inkscape:window-y="27"
     inkscape:window-maximized="1"
     inkscape:current-layer="svg3039" />
  <path
     style="fill:#000000"
     d="M 227.23006,494.90863 C 169.52158,491.89621 117.85866,480.14601 79.091952,461.21613 43.32826,443.75264 21.981015,421.08333 17.075271,395.3587 c -1.324711,-6.94649 -1.386267,-9.01206 -0.399913,-13.41955 2.76163,-12.34026 14.454072,-18.10909 25.684797,-12.67239 5.90931,2.86065 8.708811,7.21486 9.99806,15.55051 1.403953,9.07726 4.512588,14.92869 11.940781,22.47626 41.569754,42.23788 165.670104,63.07324 270.753104,45.45708 51.02429,-8.55374 92.50801,-25.34538 112.30158,-45.45708 7.42742,-7.54679 10.61949,-13.51975 11.82218,-22.12147 1.1151,-7.97531 4.26914,-13.07457 9.71872,-15.71266 7.1461,-3.45936 15.45312,-2.44616 20.70801,2.52575 5.70538,5.39816 7.1549,12.56944 4.86835,24.08554 -4.99875,25.17589 -26.59544,47.90115 -61.91022,65.14544 -51.84743,25.31722 -127.61254,37.74944 -205.33066,33.6925 z m -6.19179,-75.45951 C 183.7123,416.05348 144.76789,406.45543 112.83159,392.781 61.011571,370.59281 24.503865,336.4854 17.596587,303.80748 c -1.601699,-7.57754 -0.750181,-27.27513 1.315369,-30.42756 3.122698,-4.76584 6.094398,-3.44005 27.833385,12.41753 61.602309,44.93601 123.534509,64.07736 207.674619,64.18588 40.51686,0.0522 72.20712,-4.02868 105.26246,-13.55523 36.82479,-10.61293 63.99713,-24.21268 105.98432,-53.04514 19.38386,-13.31085 24.48582,-14.98752 27.35137,-8.98857 1.70054,3.56003 2.38872,23.02307 1.03973,29.40495 -6.91334,32.7058 -43.39926,66.82081 -95.11778,88.93689 -52.42548,22.41838 -117.57515,32.20094 -177.90179,26.71289 z M 211.02354,318.83244 c -13.21686,-3.90936 -28.86575,-14.29752 -44.62075,-29.62049 -9.71687,-9.45041 -7.57518,-9.25506 -26.36795,-2.40506 -6.70371,2.44352 -15.29342,5.19492 -19.08824,6.11423 -18.68894,4.52747 -33.391558,-3.23076 -44.57819,-23.52291 C 66.886431,252.19825 67.644136,253.21241 63.839798,252.6291 54.261823,251.16052 44.152373,248.15892 38.909886,245.22715 27.2253,238.69276 18.702838,227.17888 16.775647,215.3237 c -1.630361,-10.02922 1.891604,-28.14196 8.444827,-43.43001 l 1.763371,-4.11377 -3.183048,-5.39765 C 0.26584581,122.47288 32.104502,75.721163 103.46911,45.397741 185.9066,10.36936 294.84781,6.713118 382.86883,36.020636 c 40.74386,13.566096 70.6575,30.714593 90.67885,51.983166 17.65798,18.757998 24.88384,38.162848 21.08736,56.629568 -1.89388,9.21217 -6.81193,19.2551 -13.25365,27.0647 l -4.98273,6.04081 3.30411,5.56177 c 4.63162,7.79636 11.89972,23.22057 14.20414,30.14376 2.91636,8.76161 2.75993,24.24867 -0.31156,30.84514 -5.25333,11.2823 -16.36859,15.27215 -50.72122,18.20651 -11.86042,1.01311 -22.40823,2.07942 -23.43957,2.36959 -1.03134,0.29016 -6.09429,6.04528 -11.25099,12.78913 -14.92808,19.52272 -19.46436,23.47311 -31.73324,27.63473 -16.30629,5.53112 -39.09209,0.4518 -72.33847,-16.12542 -5.67238,-2.82834 -11.49048,-5.14121 -12.92912,-5.13972 -5.458,0.006 -15.26507,6.34175 -27.38621,17.69344 -15.34439,14.37033 -22.69118,17.99924 -37.50405,18.52497 -7.16087,0.25414 -10.76803,-0.079 -15.26894,-1.41034 z m 25.14038,-41.60281 c 19.78713,-17.83998 26.86122,-22.64625 39.99468,-27.17316 7.37803,-2.5431 8.98029,-2.76391 17.71053,-2.44075 l 9.59862,0.35532 11.99467,5.95515 c 29.6961,14.74361 45.89261,19.60224 51.72559,15.51667 1.14494,-0.80194 6.40054,-7.02515 11.6791,-13.82935 5.27856,-6.8042 11.04551,-13.97678 12.81542,-15.93909 7.49299,-8.30745 16.9287,-11.13713 44.33614,-13.29601 20.68596,-1.62943 22.32558,-1.8981 22.32558,-3.6584 0,-1.97179 -10.47007,-22.25676 -11.73916,-22.74375 -0.6531,-0.25062 -4.08027,0.99528 -7.61591,2.76868 -30.95462,15.52613 -76.45581,26.74782 -130.6582,32.22344 -23.24163,2.34793 -81.76766,2.34793 -105.00929,0 -45.61818,-4.60843 -83.77761,-12.92169 -113.447534,-24.71521 -11.494724,-4.56904 -25.997494,-11.54172 -30.230652,-14.53436 -1.414574,-1.00004 -2.954352,-1.58191 -3.421726,-1.29306 -0.795238,0.49148 -2.151124,5.61799 -3.270661,12.36611 -0.875524,5.27732 3.836005,7.88521 17.699829,9.79709 4.123846,0.5687 9.697764,2.07469 12.386485,3.34666 7.015887,3.31904 14.578942,12.04076 21.840839,25.18684 3.34592,6.05706 6.67396,11.23942 7.39564,11.51635 0.7217,0.27695 9.16175,-2.1943 18.75568,-5.49162 17.27392,-5.93688 17.54377,-5.99533 27.75691,-6.01247 13.70077,-0.023 16.24347,1.24793 30.94024,15.46479 12.91846,12.49661 19.43043,17.61667 26.72111,21.00952 8.65786,4.02908 10.95605,3.51861 19.71607,-4.37939 z m 52.96262,-77.61648 c 51.45591,-3.32752 95.36484,-12.6311 128.15598,-27.15415 25.90435,-11.47292 43.47952,-28.02297 41.66074,-39.23077 C 456.6304,118.97576 436.53684,100.23653 408.18357,85.889782 321.28714,41.920238 190.51443,41.840294 103.83798,85.703732 74.72333,100.43748 55.065458,118.70967 52.709419,133.22823 c -1.818776,11.2078 15.756385,27.75785 41.660742,39.23077 32.008889,14.17659 76.895239,23.83588 125.828029,27.07748 17.28599,1.14513 51.8122,1.18354 68.92835,0.0767 z m -96.09037,-38.01888 c -8.24518,-3.57628 -12.25905,-12.14214 -9.91825,-21.16616 2.08345,-8.03191 8.64104,-13.19546 16.8979,-13.30567 5.91505,-0.079 11.15682,2.43622 14.92322,7.16066 5.22431,6.55319 4.25368,18.70403 -1.94167,24.30652 -4.77205,4.31541 -13.80459,5.67503 -19.9612,3.00465 z M 155.97375,124.7411 c -9.27922,-4.28264 -13.2418,-14.84268 -9.01013,-24.01146 6.58686,-14.271788 26.43474,-14.271788 33.0216,0 6.99025,15.14582 -8.86564,31.00171 -24.01147,24.01146 z m 55.3174,-18.48485 c -4.40988,-2.40739 -7.13423,-5.21242 -9.01014,-9.276938 -2.38796,-5.17404 -2.19808,-9.55913 0.66253,-15.299629 3.84544,-7.716788 12.20518,-11.650909 20.22333,-9.517163 9.24964,2.461462 14.57715,10.09116 13.60735,19.487562 -0.55769,5.40358 -3.28084,9.813718 -8.43656,13.663018 -3.43021,2.56102 -13.10258,3.09618 -17.04651,0.94315 z"
     id="path3049"
     inkscape:connector-curvature="0" />
</svg>
