<?xml version="1.0" encoding="UTF-8" standalone="no"?>
<!-- Created with Inkscape (http://www.inkscape.org/) -->

<svg
   xmlns:dc="http://purl.org/dc/elements/1.1/"
   xmlns:cc="http://creativecommons.org/ns#"
   xmlns:rdf="http://www.w3.org/1999/02/22-rdf-syntax-ns#"
   xmlns:svg="http://www.w3.org/2000/svg"
   xmlns="http://www.w3.org/2000/svg"
   xmlns:sodipodi="http://sodipodi.sourceforge.net/DTD/sodipodi-0.dtd"
   xmlns:inkscape="http://www.inkscape.org/namespaces/inkscape"
   id="svg3039"
   version="1.1"
   inkscape:version="0.48.4 r9939"
   width="512"
   height="512"
   sodipodi:docname="House-and-Appliances-Washing-machine-icon.png">
  <metadata
     id="metadata3045">
    <rdf:RDF>
      <cc:Work
         rdf:about="">
        <dc:format>image/svg+xml</dc:format>
        <dc:type
           rdf:resource="http://purl.org/dc/dcmitype/StillImage" />
        <dc:title></dc:title>
      </cc:Work>
    </rdf:RDF>
  </metadata>
  <defs
     id="defs3043" />
  <sodipodi:namedview
     pagecolor="#ffffff"
     bordercolor="#666666"
     borderopacity="1"
     objecttolerance="10"
     gridtolerance="10"
     guidetolerance="10"
     inkscape:pageopacity="0"
     inkscape:pageshadow="2"
     inkscape:window-width="1680"
     inkscape:window-height="991"
     id="namedview3041"
     showgrid="false"
     inkscape:zoom="0.9375"
     inkscape:cx="144.15853"
     inkscape:cy="217.0156"
     inkscape:window-x="0"
     inkscape:window-y="27"
     inkscape:window-maximized="1"
     inkscape:current-layer="svg3039" />
  <path
     style="fill:#000000"
     d="M 98.592592,491.62606 C 79.132653,487.43147 62.325396,471.22199 57.405472,451.90382 56.171248,447.05762 56,423.19217 56,256.03354 56,88.874907 56.171248,65.009464 57.405472,60.163258 62.381897,40.62324 79.206154,24.556895 99.055555,20.38946 c 9.733155,-2.043502 304.155745,-2.043502 313.888895,0 19.84939,4.167435 36.67365,20.23378 41.65007,39.773798 C 455.82875,65.009464 456,88.874907 456,256.03354 c 0,167.15863 -0.17125,191.02408 -1.40548,195.87028 -4.97642,19.54002 -21.80068,35.60636 -41.65007,39.7738 -9.46214,1.9866 -305.12122,1.9381 -314.351858,-0.0516 z M 281.35855,400.3847 c 47.17151,-9.50881 84.89782,-44.27143 98.35066,-90.62444 12.95197,-44.62721 0.27276,-93.39315 -32.84995,-126.3453 -19.27116,-19.17194 -43.96576,-31.93674 -70.02593,-36.19689 -10.68682,-1.747 -30.97984,-1.747 -41.66666,0 -32.4785,5.30937 -64.19388,24.90469 -83.33381,51.48771 -53.767553,74.67658 -14.61058,179.61578 74.95951,200.88863 16.85512,4.00308 37.16863,4.29728 54.56618,0.79029 z m -36.0067,-20.828 c -14.46088,-2.11122 -26.69135,-5.60175 -36.11111,-10.30598 -35.82747,-17.89226 -58.7899,-54.91989 -58.79503,-94.80885 -0.004,-27.86174 9.9832,-52.87463 29.07877,-72.8306 20.85138,-21.79092 46.38092,-32.71056 76.47552,-32.71056 30.0946,0 55.62414,10.91964 76.47552,32.71056 19.09557,19.95597 29.08236,44.96886 29.07877,72.8306 -0.004,28.1686 -10.97546,54.52608 -31.05694,74.60754 -14.65581,14.65582 -32.64444,24.41682 -53.13249,28.83081 -6.17697,1.33078 -26.93498,2.41785 -32.01301,1.67648 z m 34.25926,-109.0395 c 4.58334,-1.27463 13.125,-3.85117 18.98148,-5.72563 14.65169,-4.68953 25.41335,-5.33168 34.72223,-2.0719 3.56481,1.24834 7.21065,2.59089 8.10185,2.98344 1.33226,0.58684 1.61921,0.2434 1.61387,-1.93162 -0.0148,-6.06516 -3.9402,-18.81551 -8.79597,-28.57128 -11.20878,-22.51967 -29.74978,-37.96256 -54.62346,-45.49619 -7.62464,-2.30932 -9.6326,-2.52395 -23.61111,-2.52395 -13.97851,0 -15.98647,0.21463 -23.61111,2.52395 -17.52159,5.30685 -32.91264,15.31063 -43.93268,28.55505 -9.70056,11.65864 -19.45964,34.4515 -19.48675,45.51242 -0.006,2.17692 0.28044,2.51809 1.61387,1.9266 0.8912,-0.39531 4.95371,-1.91601 9.02778,-3.37931 6.65858,-2.3916 8.29665,-2.62162 16.20371,-2.27528 7.69825,0.33719 10.41447,0.96897 21.75926,5.06107 11.59762,4.18329 19.42033,6.53349 26.38888,7.9281 1.27315,0.25478 7.93982,0.31447 14.81482,0.13264 9.75491,-0.25799 14.33006,-0.83954 20.83333,-2.64811 z m 29.7684,-159.29379 c 21.74834,-5.79072 28.92059,-33.19574 12.88459,-49.23174 -14.66731,-14.667306 -38.76567,-10.185851 -47.62549,8.856682 -3.35097,7.202285 -3.34409,16.901615 0.0171,24.074075 6.33573,13.519843 20.38989,20.117533 34.7238,16.300983 z m 95.28827,-1.4112 c 18.79902,-8.29665 23.50822,-33.062102 9.06183,-47.655709 -17.83108,-18.012796 -48.46399,-6.689347 -50.11791,18.526075 -0.93873,14.311561 7.68662,26.842874 21.08779,30.637304 5.65454,1.60105 14.42479,0.93886 19.96829,-1.50767 z"
     id="path3049"
     inkscape:connector-curvature="0" />
</svg>
